G04 EAGLE Gerber RS-274X export*
G75*
%MOMM*%
%FSLAX34Y34*%
%LPD*%
%INBottom Copper*%
%IPPOS*%
%AMOC8*
5,1,8,0,0,1.08239X$1,22.5*%
G01*
%ADD10C,0.300000*%
%ADD11R,0.300000X0.750000*%
%ADD12C,0.808000*%
%ADD13R,1.000000X1.100000*%
%ADD14R,0.450000X0.270000*%
%ADD15R,0.370000X0.450000*%
%ADD16R,0.270000X0.450000*%
%ADD17R,1.100000X1.000000*%
%ADD18C,0.756400*%


D10*
X638000Y174000D02*
X212000Y174000D01*
X212000Y168000D02*
X638000Y168000D01*
X638000Y162000D02*
X212000Y162000D01*
X212000Y156000D02*
X638000Y156000D01*
X638000Y150000D02*
X212000Y150000D01*
X641000Y177000D02*
X641000Y373000D01*
X647000Y373000D02*
X647000Y177000D01*
X653000Y177000D02*
X653000Y373000D01*
X659000Y373000D02*
X659000Y177000D01*
X665000Y177000D02*
X665000Y373000D01*
X209000Y373000D02*
X209000Y177000D01*
X203000Y177000D02*
X203000Y373000D01*
X197000Y373000D02*
X197000Y177000D01*
X191000Y177000D02*
X191000Y373000D01*
X185000Y373000D02*
X185000Y177000D01*
X209000Y373000D02*
X209002Y373107D01*
X209008Y373214D01*
X209017Y373321D01*
X209031Y373427D01*
X209048Y373533D01*
X209069Y373638D01*
X209093Y373742D01*
X209122Y373845D01*
X209154Y373947D01*
X209189Y374048D01*
X209228Y374148D01*
X209271Y374246D01*
X209317Y374343D01*
X209367Y374438D01*
X209420Y374531D01*
X209476Y374622D01*
X209536Y374711D01*
X209598Y374798D01*
X209664Y374882D01*
X209733Y374965D01*
X209804Y375044D01*
X209879Y375121D01*
X209956Y375196D01*
X210035Y375267D01*
X210118Y375336D01*
X210202Y375402D01*
X210289Y375464D01*
X210378Y375524D01*
X210469Y375580D01*
X210562Y375633D01*
X210657Y375683D01*
X210754Y375729D01*
X210852Y375772D01*
X210952Y375811D01*
X211053Y375846D01*
X211155Y375878D01*
X211258Y375907D01*
X211362Y375931D01*
X211467Y375952D01*
X211573Y375969D01*
X211679Y375983D01*
X211786Y375992D01*
X211893Y375998D01*
X212000Y376000D01*
X212000Y382000D02*
X211783Y381997D01*
X211565Y381989D01*
X211348Y381976D01*
X211131Y381958D01*
X210915Y381934D01*
X210700Y381906D01*
X210485Y381872D01*
X210271Y381832D01*
X210058Y381788D01*
X209846Y381738D01*
X209636Y381684D01*
X209426Y381624D01*
X209219Y381560D01*
X209013Y381490D01*
X208809Y381415D01*
X208606Y381336D01*
X208406Y381251D01*
X208207Y381162D01*
X208011Y381068D01*
X207817Y380969D01*
X207626Y380866D01*
X207437Y380758D01*
X207251Y380645D01*
X207068Y380528D01*
X206887Y380407D01*
X206710Y380281D01*
X206536Y380151D01*
X206364Y380017D01*
X206196Y379879D01*
X206032Y379737D01*
X205871Y379590D01*
X205713Y379440D01*
X205560Y379287D01*
X205410Y379129D01*
X205263Y378968D01*
X205121Y378804D01*
X204983Y378636D01*
X204849Y378464D01*
X204719Y378290D01*
X204593Y378113D01*
X204472Y377932D01*
X204355Y377749D01*
X204242Y377563D01*
X204134Y377374D01*
X204031Y377183D01*
X203932Y376989D01*
X203838Y376793D01*
X203749Y376594D01*
X203664Y376394D01*
X203585Y376191D01*
X203510Y375987D01*
X203440Y375781D01*
X203376Y375574D01*
X203316Y375364D01*
X203262Y375154D01*
X203212Y374942D01*
X203168Y374729D01*
X203128Y374515D01*
X203094Y374300D01*
X203066Y374085D01*
X203042Y373869D01*
X203024Y373652D01*
X203011Y373435D01*
X203003Y373217D01*
X203000Y373000D01*
X197000Y373000D02*
X197004Y373362D01*
X197018Y373725D01*
X197039Y374087D01*
X197070Y374448D01*
X197109Y374808D01*
X197157Y375167D01*
X197214Y375525D01*
X197279Y375882D01*
X197353Y376237D01*
X197436Y376590D01*
X197527Y376941D01*
X197626Y377289D01*
X197734Y377635D01*
X197850Y377979D01*
X197975Y378319D01*
X198107Y378656D01*
X198248Y378990D01*
X198397Y379321D01*
X198554Y379648D01*
X198718Y379971D01*
X198890Y380290D01*
X199070Y380604D01*
X199258Y380915D01*
X199453Y381220D01*
X199655Y381521D01*
X199865Y381817D01*
X200081Y382107D01*
X200305Y382393D01*
X200535Y382673D01*
X200772Y382947D01*
X201016Y383215D01*
X201266Y383478D01*
X201522Y383734D01*
X201785Y383984D01*
X202053Y384228D01*
X202327Y384465D01*
X202607Y384695D01*
X202893Y384919D01*
X203183Y385135D01*
X203479Y385345D01*
X203780Y385547D01*
X204085Y385742D01*
X204396Y385930D01*
X204710Y386110D01*
X205029Y386282D01*
X205352Y386446D01*
X205679Y386603D01*
X206010Y386752D01*
X206344Y386893D01*
X206681Y387025D01*
X207021Y387150D01*
X207365Y387266D01*
X207711Y387374D01*
X208059Y387473D01*
X208410Y387564D01*
X208763Y387647D01*
X209118Y387721D01*
X209475Y387786D01*
X209833Y387843D01*
X210192Y387891D01*
X210552Y387930D01*
X210913Y387961D01*
X211275Y387982D01*
X211638Y387996D01*
X212000Y388000D01*
X212000Y394000D02*
X211493Y393994D01*
X210985Y393975D01*
X210479Y393945D01*
X209973Y393902D01*
X209469Y393847D01*
X208966Y393780D01*
X208465Y393700D01*
X207965Y393609D01*
X207469Y393505D01*
X206974Y393390D01*
X206483Y393262D01*
X205995Y393123D01*
X205511Y392972D01*
X205030Y392810D01*
X204553Y392635D01*
X204081Y392450D01*
X203613Y392253D01*
X203151Y392044D01*
X202693Y391825D01*
X202241Y391595D01*
X201794Y391353D01*
X201354Y391101D01*
X200920Y390839D01*
X200492Y390566D01*
X200071Y390283D01*
X199657Y389989D01*
X199250Y389686D01*
X198850Y389373D01*
X198458Y389051D01*
X198074Y388719D01*
X197699Y388378D01*
X197331Y388028D01*
X196972Y387669D01*
X196622Y387301D01*
X196281Y386926D01*
X195949Y386542D01*
X195627Y386150D01*
X195314Y385750D01*
X195011Y385343D01*
X194717Y384929D01*
X194434Y384508D01*
X194161Y384080D01*
X193899Y383646D01*
X193647Y383206D01*
X193405Y382759D01*
X193175Y382307D01*
X192956Y381849D01*
X192747Y381387D01*
X192550Y380919D01*
X192365Y380447D01*
X192190Y379970D01*
X192028Y379489D01*
X191877Y379005D01*
X191738Y378517D01*
X191610Y378026D01*
X191495Y377531D01*
X191391Y377035D01*
X191300Y376535D01*
X191220Y376034D01*
X191153Y375531D01*
X191098Y375027D01*
X191055Y374521D01*
X191025Y374015D01*
X191006Y373507D01*
X191000Y373000D01*
X185000Y373000D02*
X185008Y373652D01*
X185032Y374304D01*
X185071Y374956D01*
X185126Y375606D01*
X185197Y376254D01*
X185283Y376901D01*
X185385Y377546D01*
X185503Y378187D01*
X185636Y378826D01*
X185785Y379462D01*
X185948Y380093D01*
X186127Y380721D01*
X186321Y381343D01*
X186531Y381962D01*
X186755Y382574D01*
X186993Y383182D01*
X187247Y383783D01*
X187514Y384378D01*
X187796Y384966D01*
X188093Y385548D01*
X188403Y386122D01*
X188727Y386688D01*
X189064Y387246D01*
X189415Y387796D01*
X189779Y388338D01*
X190157Y388870D01*
X190546Y389393D01*
X190949Y389907D01*
X191363Y390411D01*
X191790Y390904D01*
X192229Y391387D01*
X192679Y391860D01*
X193140Y392321D01*
X193613Y392771D01*
X194096Y393210D01*
X194589Y393637D01*
X195093Y394051D01*
X195607Y394454D01*
X196130Y394843D01*
X196662Y395221D01*
X197204Y395585D01*
X197754Y395936D01*
X198312Y396273D01*
X198878Y396597D01*
X199452Y396907D01*
X200034Y397204D01*
X200622Y397486D01*
X201217Y397753D01*
X201818Y398007D01*
X202426Y398245D01*
X203038Y398469D01*
X203657Y398679D01*
X204279Y398873D01*
X204907Y399052D01*
X205538Y399215D01*
X206174Y399364D01*
X206813Y399497D01*
X207454Y399615D01*
X208099Y399717D01*
X208746Y399803D01*
X209394Y399874D01*
X210044Y399929D01*
X210696Y399968D01*
X211348Y399992D01*
X212000Y400000D01*
X638000Y376000D02*
X638107Y375998D01*
X638214Y375992D01*
X638321Y375983D01*
X638427Y375969D01*
X638533Y375952D01*
X638638Y375931D01*
X638742Y375907D01*
X638845Y375878D01*
X638947Y375846D01*
X639048Y375811D01*
X639148Y375772D01*
X639246Y375729D01*
X639343Y375683D01*
X639438Y375633D01*
X639531Y375580D01*
X639622Y375524D01*
X639711Y375464D01*
X639798Y375402D01*
X639882Y375336D01*
X639965Y375267D01*
X640044Y375196D01*
X640121Y375121D01*
X640196Y375044D01*
X640267Y374965D01*
X640336Y374882D01*
X640402Y374798D01*
X640464Y374711D01*
X640524Y374622D01*
X640580Y374531D01*
X640633Y374438D01*
X640683Y374343D01*
X640729Y374246D01*
X640772Y374148D01*
X640811Y374048D01*
X640846Y373947D01*
X640878Y373845D01*
X640907Y373742D01*
X640931Y373638D01*
X640952Y373533D01*
X640969Y373427D01*
X640983Y373321D01*
X640992Y373214D01*
X640998Y373107D01*
X641000Y373000D01*
X647000Y373000D02*
X646997Y373217D01*
X646989Y373435D01*
X646976Y373652D01*
X646958Y373869D01*
X646934Y374085D01*
X646906Y374300D01*
X646872Y374515D01*
X646832Y374729D01*
X646788Y374942D01*
X646738Y375154D01*
X646684Y375364D01*
X646624Y375574D01*
X646560Y375781D01*
X646490Y375987D01*
X646415Y376191D01*
X646336Y376394D01*
X646251Y376594D01*
X646162Y376793D01*
X646068Y376989D01*
X645969Y377183D01*
X645866Y377374D01*
X645758Y377563D01*
X645645Y377749D01*
X645528Y377932D01*
X645407Y378113D01*
X645281Y378290D01*
X645151Y378464D01*
X645017Y378636D01*
X644879Y378804D01*
X644737Y378968D01*
X644590Y379129D01*
X644440Y379287D01*
X644287Y379440D01*
X644129Y379590D01*
X643968Y379737D01*
X643804Y379879D01*
X643636Y380017D01*
X643464Y380151D01*
X643290Y380281D01*
X643113Y380407D01*
X642932Y380528D01*
X642749Y380645D01*
X642563Y380758D01*
X642374Y380866D01*
X642183Y380969D01*
X641989Y381068D01*
X641793Y381162D01*
X641594Y381251D01*
X641394Y381336D01*
X641191Y381415D01*
X640987Y381490D01*
X640781Y381560D01*
X640574Y381624D01*
X640364Y381684D01*
X640154Y381738D01*
X639942Y381788D01*
X639729Y381832D01*
X639515Y381872D01*
X639300Y381906D01*
X639085Y381934D01*
X638869Y381958D01*
X638652Y381976D01*
X638435Y381989D01*
X638217Y381997D01*
X638000Y382000D01*
X638000Y388000D02*
X638362Y387996D01*
X638725Y387982D01*
X639087Y387961D01*
X639448Y387930D01*
X639808Y387891D01*
X640167Y387843D01*
X640525Y387786D01*
X640882Y387721D01*
X641237Y387647D01*
X641590Y387564D01*
X641941Y387473D01*
X642289Y387374D01*
X642635Y387266D01*
X642979Y387150D01*
X643319Y387025D01*
X643656Y386893D01*
X643990Y386752D01*
X644321Y386603D01*
X644648Y386446D01*
X644971Y386282D01*
X645290Y386110D01*
X645604Y385930D01*
X645915Y385742D01*
X646220Y385547D01*
X646521Y385345D01*
X646817Y385135D01*
X647107Y384919D01*
X647393Y384695D01*
X647673Y384465D01*
X647947Y384228D01*
X648215Y383984D01*
X648478Y383734D01*
X648734Y383478D01*
X648984Y383215D01*
X649228Y382947D01*
X649465Y382673D01*
X649695Y382393D01*
X649919Y382107D01*
X650135Y381817D01*
X650345Y381521D01*
X650547Y381220D01*
X650742Y380915D01*
X650930Y380604D01*
X651110Y380290D01*
X651282Y379971D01*
X651446Y379648D01*
X651603Y379321D01*
X651752Y378990D01*
X651893Y378656D01*
X652025Y378319D01*
X652150Y377979D01*
X652266Y377635D01*
X652374Y377289D01*
X652473Y376941D01*
X652564Y376590D01*
X652647Y376237D01*
X652721Y375882D01*
X652786Y375525D01*
X652843Y375167D01*
X652891Y374808D01*
X652930Y374448D01*
X652961Y374087D01*
X652982Y373725D01*
X652996Y373362D01*
X653000Y373000D01*
X659000Y373000D02*
X658994Y373507D01*
X658975Y374015D01*
X658945Y374521D01*
X658902Y375027D01*
X658847Y375531D01*
X658780Y376034D01*
X658700Y376535D01*
X658609Y377035D01*
X658505Y377531D01*
X658390Y378026D01*
X658262Y378517D01*
X658123Y379005D01*
X657972Y379489D01*
X657810Y379970D01*
X657635Y380447D01*
X657450Y380919D01*
X657253Y381387D01*
X657044Y381849D01*
X656825Y382307D01*
X656595Y382759D01*
X656353Y383206D01*
X656101Y383646D01*
X655839Y384080D01*
X655566Y384508D01*
X655283Y384929D01*
X654989Y385343D01*
X654686Y385750D01*
X654373Y386150D01*
X654051Y386542D01*
X653719Y386926D01*
X653378Y387301D01*
X653028Y387669D01*
X652669Y388028D01*
X652301Y388378D01*
X651926Y388719D01*
X651542Y389051D01*
X651150Y389373D01*
X650750Y389686D01*
X650343Y389989D01*
X649929Y390283D01*
X649508Y390566D01*
X649080Y390839D01*
X648646Y391101D01*
X648206Y391353D01*
X647759Y391595D01*
X647307Y391825D01*
X646849Y392044D01*
X646387Y392253D01*
X645919Y392450D01*
X645447Y392635D01*
X644970Y392810D01*
X644489Y392972D01*
X644005Y393123D01*
X643517Y393262D01*
X643026Y393390D01*
X642531Y393505D01*
X642035Y393609D01*
X641535Y393700D01*
X641034Y393780D01*
X640531Y393847D01*
X640027Y393902D01*
X639521Y393945D01*
X639015Y393975D01*
X638507Y393994D01*
X638000Y394000D01*
X638000Y400000D02*
X638652Y399992D01*
X639304Y399968D01*
X639956Y399929D01*
X640606Y399874D01*
X641254Y399803D01*
X641901Y399717D01*
X642546Y399615D01*
X643187Y399497D01*
X643826Y399364D01*
X644462Y399215D01*
X645093Y399052D01*
X645721Y398873D01*
X646343Y398679D01*
X646962Y398469D01*
X647574Y398245D01*
X648182Y398007D01*
X648783Y397753D01*
X649378Y397486D01*
X649966Y397204D01*
X650548Y396907D01*
X651122Y396597D01*
X651688Y396273D01*
X652246Y395936D01*
X652796Y395585D01*
X653338Y395221D01*
X653870Y394843D01*
X654393Y394454D01*
X654907Y394051D01*
X655411Y393637D01*
X655904Y393210D01*
X656387Y392771D01*
X656860Y392321D01*
X657321Y391860D01*
X657771Y391387D01*
X658210Y390904D01*
X658637Y390411D01*
X659051Y389907D01*
X659454Y389393D01*
X659843Y388870D01*
X660221Y388338D01*
X660585Y387796D01*
X660936Y387246D01*
X661273Y386688D01*
X661597Y386122D01*
X661907Y385548D01*
X662204Y384966D01*
X662486Y384378D01*
X662753Y383783D01*
X663007Y383182D01*
X663245Y382574D01*
X663469Y381962D01*
X663679Y381343D01*
X663873Y380721D01*
X664052Y380093D01*
X664215Y379462D01*
X664364Y378826D01*
X664497Y378187D01*
X664615Y377546D01*
X664717Y376901D01*
X664803Y376254D01*
X664874Y375606D01*
X664929Y374956D01*
X664968Y374304D01*
X664992Y373652D01*
X665000Y373000D01*
X641000Y177000D02*
X640998Y176893D01*
X640992Y176786D01*
X640983Y176679D01*
X640969Y176573D01*
X640952Y176467D01*
X640931Y176362D01*
X640907Y176258D01*
X640878Y176155D01*
X640846Y176053D01*
X640811Y175952D01*
X640772Y175852D01*
X640729Y175754D01*
X640683Y175657D01*
X640633Y175562D01*
X640580Y175469D01*
X640524Y175378D01*
X640464Y175289D01*
X640402Y175202D01*
X640336Y175118D01*
X640267Y175035D01*
X640196Y174956D01*
X640121Y174879D01*
X640044Y174804D01*
X639965Y174733D01*
X639882Y174664D01*
X639798Y174598D01*
X639711Y174536D01*
X639622Y174476D01*
X639531Y174420D01*
X639438Y174367D01*
X639343Y174317D01*
X639246Y174271D01*
X639148Y174228D01*
X639048Y174189D01*
X638947Y174154D01*
X638845Y174122D01*
X638742Y174093D01*
X638638Y174069D01*
X638533Y174048D01*
X638427Y174031D01*
X638321Y174017D01*
X638214Y174008D01*
X638107Y174002D01*
X638000Y174000D01*
X638000Y168000D02*
X638217Y168003D01*
X638435Y168011D01*
X638652Y168024D01*
X638869Y168042D01*
X639085Y168066D01*
X639300Y168094D01*
X639515Y168128D01*
X639729Y168168D01*
X639942Y168212D01*
X640154Y168262D01*
X640364Y168316D01*
X640574Y168376D01*
X640781Y168440D01*
X640987Y168510D01*
X641191Y168585D01*
X641394Y168664D01*
X641594Y168749D01*
X641793Y168838D01*
X641989Y168932D01*
X642183Y169031D01*
X642374Y169134D01*
X642563Y169242D01*
X642749Y169355D01*
X642932Y169472D01*
X643113Y169593D01*
X643290Y169719D01*
X643464Y169849D01*
X643636Y169983D01*
X643804Y170121D01*
X643968Y170263D01*
X644129Y170410D01*
X644287Y170560D01*
X644440Y170713D01*
X644590Y170871D01*
X644737Y171032D01*
X644879Y171196D01*
X645017Y171364D01*
X645151Y171536D01*
X645281Y171710D01*
X645407Y171887D01*
X645528Y172068D01*
X645645Y172251D01*
X645758Y172437D01*
X645866Y172626D01*
X645969Y172817D01*
X646068Y173011D01*
X646162Y173207D01*
X646251Y173406D01*
X646336Y173606D01*
X646415Y173809D01*
X646490Y174013D01*
X646560Y174219D01*
X646624Y174426D01*
X646684Y174636D01*
X646738Y174846D01*
X646788Y175058D01*
X646832Y175271D01*
X646872Y175485D01*
X646906Y175700D01*
X646934Y175915D01*
X646958Y176131D01*
X646976Y176348D01*
X646989Y176565D01*
X646997Y176783D01*
X647000Y177000D01*
X653000Y177000D02*
X652996Y176638D01*
X652982Y176275D01*
X652961Y175913D01*
X652930Y175552D01*
X652891Y175192D01*
X652843Y174833D01*
X652786Y174475D01*
X652721Y174118D01*
X652647Y173763D01*
X652564Y173410D01*
X652473Y173059D01*
X652374Y172711D01*
X652266Y172365D01*
X652150Y172021D01*
X652025Y171681D01*
X651893Y171344D01*
X651752Y171010D01*
X651603Y170679D01*
X651446Y170352D01*
X651282Y170029D01*
X651110Y169710D01*
X650930Y169396D01*
X650742Y169085D01*
X650547Y168780D01*
X650345Y168479D01*
X650135Y168183D01*
X649919Y167893D01*
X649695Y167607D01*
X649465Y167327D01*
X649228Y167053D01*
X648984Y166785D01*
X648734Y166522D01*
X648478Y166266D01*
X648215Y166016D01*
X647947Y165772D01*
X647673Y165535D01*
X647393Y165305D01*
X647107Y165081D01*
X646817Y164865D01*
X646521Y164655D01*
X646220Y164453D01*
X645915Y164258D01*
X645604Y164070D01*
X645290Y163890D01*
X644971Y163718D01*
X644648Y163554D01*
X644321Y163397D01*
X643990Y163248D01*
X643656Y163107D01*
X643319Y162975D01*
X642979Y162850D01*
X642635Y162734D01*
X642289Y162626D01*
X641941Y162527D01*
X641590Y162436D01*
X641237Y162353D01*
X640882Y162279D01*
X640525Y162214D01*
X640167Y162157D01*
X639808Y162109D01*
X639448Y162070D01*
X639087Y162039D01*
X638725Y162018D01*
X638362Y162004D01*
X638000Y162000D01*
X638000Y156000D02*
X638507Y156006D01*
X639015Y156025D01*
X639521Y156055D01*
X640027Y156098D01*
X640531Y156153D01*
X641034Y156220D01*
X641535Y156300D01*
X642035Y156391D01*
X642531Y156495D01*
X643026Y156610D01*
X643517Y156738D01*
X644005Y156877D01*
X644489Y157028D01*
X644970Y157190D01*
X645447Y157365D01*
X645919Y157550D01*
X646387Y157747D01*
X646849Y157956D01*
X647307Y158175D01*
X647759Y158405D01*
X648206Y158647D01*
X648646Y158899D01*
X649080Y159161D01*
X649508Y159434D01*
X649929Y159717D01*
X650343Y160011D01*
X650750Y160314D01*
X651150Y160627D01*
X651542Y160949D01*
X651926Y161281D01*
X652301Y161622D01*
X652669Y161972D01*
X653028Y162331D01*
X653378Y162699D01*
X653719Y163074D01*
X654051Y163458D01*
X654373Y163850D01*
X654686Y164250D01*
X654989Y164657D01*
X655283Y165071D01*
X655566Y165492D01*
X655839Y165920D01*
X656101Y166354D01*
X656353Y166794D01*
X656595Y167241D01*
X656825Y167693D01*
X657044Y168151D01*
X657253Y168613D01*
X657450Y169081D01*
X657635Y169553D01*
X657810Y170030D01*
X657972Y170511D01*
X658123Y170995D01*
X658262Y171483D01*
X658390Y171974D01*
X658505Y172469D01*
X658609Y172965D01*
X658700Y173465D01*
X658780Y173966D01*
X658847Y174469D01*
X658902Y174973D01*
X658945Y175479D01*
X658975Y175985D01*
X658994Y176493D01*
X659000Y177000D01*
X665000Y177000D02*
X664992Y176348D01*
X664968Y175696D01*
X664929Y175044D01*
X664874Y174394D01*
X664803Y173746D01*
X664717Y173099D01*
X664615Y172454D01*
X664497Y171813D01*
X664364Y171174D01*
X664215Y170538D01*
X664052Y169907D01*
X663873Y169279D01*
X663679Y168657D01*
X663469Y168038D01*
X663245Y167426D01*
X663007Y166818D01*
X662753Y166217D01*
X662486Y165622D01*
X662204Y165034D01*
X661907Y164452D01*
X661597Y163878D01*
X661273Y163312D01*
X660936Y162754D01*
X660585Y162204D01*
X660221Y161662D01*
X659843Y161130D01*
X659454Y160607D01*
X659051Y160093D01*
X658637Y159589D01*
X658210Y159096D01*
X657771Y158613D01*
X657321Y158140D01*
X656860Y157679D01*
X656387Y157229D01*
X655904Y156790D01*
X655411Y156363D01*
X654907Y155949D01*
X654393Y155546D01*
X653870Y155157D01*
X653338Y154779D01*
X652796Y154415D01*
X652246Y154064D01*
X651688Y153727D01*
X651122Y153403D01*
X650548Y153093D01*
X649966Y152796D01*
X649378Y152514D01*
X648783Y152247D01*
X648182Y151993D01*
X647574Y151755D01*
X646962Y151531D01*
X646343Y151321D01*
X645721Y151127D01*
X645093Y150948D01*
X644462Y150785D01*
X643826Y150636D01*
X643187Y150503D01*
X642546Y150385D01*
X641901Y150283D01*
X641254Y150197D01*
X640606Y150126D01*
X639956Y150071D01*
X639304Y150032D01*
X638652Y150008D01*
X638000Y150000D01*
X212000Y174000D02*
X211893Y174002D01*
X211786Y174008D01*
X211679Y174017D01*
X211573Y174031D01*
X211467Y174048D01*
X211362Y174069D01*
X211258Y174093D01*
X211155Y174122D01*
X211053Y174154D01*
X210952Y174189D01*
X210852Y174228D01*
X210754Y174271D01*
X210657Y174317D01*
X210562Y174367D01*
X210469Y174420D01*
X210378Y174476D01*
X210289Y174536D01*
X210202Y174598D01*
X210118Y174664D01*
X210035Y174733D01*
X209956Y174804D01*
X209879Y174879D01*
X209804Y174956D01*
X209733Y175035D01*
X209664Y175118D01*
X209598Y175202D01*
X209536Y175289D01*
X209476Y175378D01*
X209420Y175469D01*
X209367Y175562D01*
X209317Y175657D01*
X209271Y175754D01*
X209228Y175852D01*
X209189Y175952D01*
X209154Y176053D01*
X209122Y176155D01*
X209093Y176258D01*
X209069Y176362D01*
X209048Y176467D01*
X209031Y176573D01*
X209017Y176679D01*
X209008Y176786D01*
X209002Y176893D01*
X209000Y177000D01*
X203000Y177000D02*
X203003Y176783D01*
X203011Y176565D01*
X203024Y176348D01*
X203042Y176131D01*
X203066Y175915D01*
X203094Y175700D01*
X203128Y175485D01*
X203168Y175271D01*
X203212Y175058D01*
X203262Y174846D01*
X203316Y174636D01*
X203376Y174426D01*
X203440Y174219D01*
X203510Y174013D01*
X203585Y173809D01*
X203664Y173606D01*
X203749Y173406D01*
X203838Y173207D01*
X203932Y173011D01*
X204031Y172817D01*
X204134Y172626D01*
X204242Y172437D01*
X204355Y172251D01*
X204472Y172068D01*
X204593Y171887D01*
X204719Y171710D01*
X204849Y171536D01*
X204983Y171364D01*
X205121Y171196D01*
X205263Y171032D01*
X205410Y170871D01*
X205560Y170713D01*
X205713Y170560D01*
X205871Y170410D01*
X206032Y170263D01*
X206196Y170121D01*
X206364Y169983D01*
X206536Y169849D01*
X206710Y169719D01*
X206887Y169593D01*
X207068Y169472D01*
X207251Y169355D01*
X207437Y169242D01*
X207626Y169134D01*
X207817Y169031D01*
X208011Y168932D01*
X208207Y168838D01*
X208406Y168749D01*
X208606Y168664D01*
X208809Y168585D01*
X209013Y168510D01*
X209219Y168440D01*
X209426Y168376D01*
X209636Y168316D01*
X209846Y168262D01*
X210058Y168212D01*
X210271Y168168D01*
X210485Y168128D01*
X210700Y168094D01*
X210915Y168066D01*
X211131Y168042D01*
X211348Y168024D01*
X211565Y168011D01*
X211783Y168003D01*
X212000Y168000D01*
X212000Y162000D02*
X211638Y162004D01*
X211275Y162018D01*
X210913Y162039D01*
X210552Y162070D01*
X210192Y162109D01*
X209833Y162157D01*
X209475Y162214D01*
X209118Y162279D01*
X208763Y162353D01*
X208410Y162436D01*
X208059Y162527D01*
X207711Y162626D01*
X207365Y162734D01*
X207021Y162850D01*
X206681Y162975D01*
X206344Y163107D01*
X206010Y163248D01*
X205679Y163397D01*
X205352Y163554D01*
X205029Y163718D01*
X204710Y163890D01*
X204396Y164070D01*
X204085Y164258D01*
X203780Y164453D01*
X203479Y164655D01*
X203183Y164865D01*
X202893Y165081D01*
X202607Y165305D01*
X202327Y165535D01*
X202053Y165772D01*
X201785Y166016D01*
X201522Y166266D01*
X201266Y166522D01*
X201016Y166785D01*
X200772Y167053D01*
X200535Y167327D01*
X200305Y167607D01*
X200081Y167893D01*
X199865Y168183D01*
X199655Y168479D01*
X199453Y168780D01*
X199258Y169085D01*
X199070Y169396D01*
X198890Y169710D01*
X198718Y170029D01*
X198554Y170352D01*
X198397Y170679D01*
X198248Y171010D01*
X198107Y171344D01*
X197975Y171681D01*
X197850Y172021D01*
X197734Y172365D01*
X197626Y172711D01*
X197527Y173059D01*
X197436Y173410D01*
X197353Y173763D01*
X197279Y174118D01*
X197214Y174475D01*
X197157Y174833D01*
X197109Y175192D01*
X197070Y175552D01*
X197039Y175913D01*
X197018Y176275D01*
X197004Y176638D01*
X197000Y177000D01*
X191000Y177000D02*
X191006Y176493D01*
X191025Y175985D01*
X191055Y175479D01*
X191098Y174973D01*
X191153Y174469D01*
X191220Y173966D01*
X191300Y173465D01*
X191391Y172965D01*
X191495Y172469D01*
X191610Y171974D01*
X191738Y171483D01*
X191877Y170995D01*
X192028Y170511D01*
X192190Y170030D01*
X192365Y169553D01*
X192550Y169081D01*
X192747Y168613D01*
X192956Y168151D01*
X193175Y167693D01*
X193405Y167241D01*
X193647Y166794D01*
X193899Y166354D01*
X194161Y165920D01*
X194434Y165492D01*
X194717Y165071D01*
X195011Y164657D01*
X195314Y164250D01*
X195627Y163850D01*
X195949Y163458D01*
X196281Y163074D01*
X196622Y162699D01*
X196972Y162331D01*
X197331Y161972D01*
X197699Y161622D01*
X198074Y161281D01*
X198458Y160949D01*
X198850Y160627D01*
X199250Y160314D01*
X199657Y160011D01*
X200071Y159717D01*
X200492Y159434D01*
X200920Y159161D01*
X201354Y158899D01*
X201794Y158647D01*
X202241Y158405D01*
X202693Y158175D01*
X203151Y157956D01*
X203613Y157747D01*
X204081Y157550D01*
X204553Y157365D01*
X205030Y157190D01*
X205511Y157028D01*
X205995Y156877D01*
X206483Y156738D01*
X206974Y156610D01*
X207469Y156495D01*
X207965Y156391D01*
X208465Y156300D01*
X208966Y156220D01*
X209469Y156153D01*
X209973Y156098D01*
X210479Y156055D01*
X210985Y156025D01*
X211493Y156006D01*
X212000Y156000D01*
X212000Y150000D02*
X211348Y150008D01*
X210696Y150032D01*
X210044Y150071D01*
X209394Y150126D01*
X208746Y150197D01*
X208099Y150283D01*
X207454Y150385D01*
X206813Y150503D01*
X206174Y150636D01*
X205538Y150785D01*
X204907Y150948D01*
X204279Y151127D01*
X203657Y151321D01*
X203038Y151531D01*
X202426Y151755D01*
X201818Y151993D01*
X201217Y152247D01*
X200622Y152514D01*
X200034Y152796D01*
X199452Y153093D01*
X198878Y153403D01*
X198312Y153727D01*
X197754Y154064D01*
X197204Y154415D01*
X196662Y154779D01*
X196130Y155157D01*
X195607Y155546D01*
X195093Y155949D01*
X194589Y156363D01*
X194096Y156790D01*
X193613Y157229D01*
X193140Y157679D01*
X192679Y158140D01*
X192229Y158613D01*
X191790Y159096D01*
X191363Y159589D01*
X190949Y160093D01*
X190546Y160607D01*
X190157Y161130D01*
X189779Y161662D01*
X189415Y162204D01*
X189064Y162754D01*
X188727Y163312D01*
X188403Y163878D01*
X188093Y164452D01*
X187796Y165034D01*
X187514Y165622D01*
X187247Y166217D01*
X186993Y166818D01*
X186755Y167426D01*
X186531Y168038D01*
X186321Y168657D01*
X186127Y169279D01*
X185948Y169907D01*
X185785Y170538D01*
X185636Y171174D01*
X185503Y171813D01*
X185385Y172454D01*
X185283Y173099D01*
X185197Y173746D01*
X185126Y174394D01*
X185071Y175044D01*
X185032Y175696D01*
X185008Y176348D01*
X185000Y177000D01*
X425000Y376000D02*
X638000Y376000D01*
X419000Y382000D02*
X212000Y382000D01*
X419000Y382000D02*
X425000Y376000D01*
X429000Y388000D02*
X638000Y388000D01*
X429000Y388000D02*
X423000Y394000D01*
X212000Y394000D01*
X427000Y382000D02*
X638000Y382000D01*
X427000Y382000D02*
X421000Y388000D01*
X212000Y388000D01*
X431000Y394000D02*
X638000Y394000D01*
X431000Y394000D02*
X425000Y400000D01*
X212000Y400000D01*
X212000Y376000D02*
X417000Y376000D01*
D11*
X431350Y408350D03*
D10*
X431350Y409620D01*
X431350Y408350D02*
X431350Y401650D01*
X433000Y400000D01*
X638000Y400000D01*
D12*
X418650Y370250D03*
D10*
X418650Y374350D01*
X417000Y376000D01*
D13*
X394000Y433500D03*
X394000Y416500D03*
D14*
X430000Y425000D03*
D15*
X429500Y419000D03*
D16*
X424000Y419000D03*
X419000Y419000D03*
D14*
X418000Y425000D03*
D16*
X419000Y431000D03*
X424000Y431000D03*
X429000Y431000D03*
D17*
X454000Y433500D03*
X454000Y416500D03*
D10*
X429000Y431000D02*
X424800Y431000D01*
X424000Y431000D01*
X439500Y431000D02*
X454000Y416500D01*
X439500Y431000D02*
X429000Y431000D01*
X399700Y439200D02*
X394000Y433500D01*
X423374Y434503D02*
X423374Y432426D01*
X424800Y431000D01*
X423374Y434503D02*
X418677Y439200D01*
X399700Y439200D01*
X394000Y416500D02*
X365106Y416500D01*
X341706Y439900D01*
D18*
X341706Y439900D03*
D10*
X424000Y419000D02*
X424000Y416123D01*
X421603Y413726D01*
X396774Y413726D01*
X394000Y416500D01*
X453500Y433500D02*
X454000Y433500D01*
X453500Y433500D02*
X426100Y460900D01*
X341706Y460900D01*
D18*
X341706Y460900D03*
D10*
X429500Y419000D02*
X431350Y417150D01*
X431350Y408350D01*
D18*
X438400Y418400D03*
D10*
X430726Y424274D02*
X430000Y425000D01*
X430726Y424274D02*
X432603Y424274D01*
X434374Y422503D01*
X434374Y422426D01*
X438400Y418400D01*
M02*
