G04 EAGLE Gerber RS-274X export*
G75*
%MOMM*%
%FSLAX34Y34*%
%LPD*%
%INSilkscreen Bottom*%
%IPPOS*%
%AMOC8*
5,1,8,0,0,1.08239X$1,22.5*%
G01*
%ADD10R,0.200000X0.100000*%
%ADD11R,0.300000X0.100000*%
%ADD12R,0.100000X0.100000*%
%ADD13R,0.600000X0.100000*%
%ADD14R,0.400000X0.100000*%
%ADD15R,1.200000X0.100000*%
%ADD16R,0.500000X0.100000*%
%ADD17R,0.700000X0.100000*%
%ADD18R,0.800000X0.100000*%
%ADD19R,1.100000X0.100000*%
%ADD20R,0.900000X0.100000*%
%ADD21R,1.000000X0.100000*%
%ADD22R,2.100000X0.100000*%
%ADD23R,1.400000X0.100000*%


D10*
X553500Y184000D03*
D11*
X553000Y185000D03*
X552000Y186000D03*
D10*
X551500Y187000D03*
X550500Y188000D03*
D11*
X550000Y189000D03*
X549000Y190000D03*
X548000Y191000D03*
X547000Y192000D03*
D10*
X546500Y193000D03*
X545500Y194000D03*
D11*
X545000Y195000D03*
X544000Y196000D03*
X543000Y197000D03*
D10*
X542500Y198000D03*
X541500Y199000D03*
D11*
X541000Y200000D03*
X540000Y201000D03*
D10*
X539500Y202000D03*
X538500Y203000D03*
D11*
X538000Y204000D03*
X537000Y205000D03*
D10*
X536500Y206000D03*
X535500Y207000D03*
D11*
X535000Y208000D03*
X534000Y209000D03*
D10*
X533500Y210000D03*
X532500Y211000D03*
D11*
X532000Y212000D03*
D10*
X531500Y213000D03*
X530500Y214000D03*
D11*
X530000Y215000D03*
X529000Y216000D03*
D10*
X528500Y217000D03*
D11*
X528000Y218000D03*
X527000Y219000D03*
D10*
X526500Y220000D03*
D11*
X526000Y221000D03*
D10*
X525500Y222000D03*
X524500Y223000D03*
D11*
X524000Y224000D03*
D10*
X523500Y225000D03*
D11*
X523000Y226000D03*
D10*
X522500Y227000D03*
X521500Y228000D03*
D11*
X521000Y229000D03*
D10*
X520500Y230000D03*
D11*
X520000Y231000D03*
D10*
X519500Y232000D03*
X518500Y233000D03*
D11*
X518000Y234000D03*
D10*
X517500Y235000D03*
D11*
X517000Y236000D03*
D10*
X516500Y237000D03*
D11*
X516000Y238000D03*
D10*
X515500Y239000D03*
X514500Y240000D03*
X514500Y241000D03*
X513500Y242000D03*
X513500Y243000D03*
X512500Y244000D03*
X512500Y245000D03*
X511500Y246000D03*
X511500Y247000D03*
X510500Y248000D03*
X510500Y249000D03*
X509500Y250000D03*
X509500Y251000D03*
X508500Y252000D03*
X508500Y253000D03*
D11*
X508000Y254000D03*
D10*
X507500Y255000D03*
X507500Y256000D03*
X506500Y257000D03*
X506500Y258000D03*
X505500Y259000D03*
X505500Y260000D03*
D11*
X505000Y261000D03*
D10*
X504500Y262000D03*
X504500Y263000D03*
X503500Y264000D03*
X503500Y265000D03*
D11*
X503000Y266000D03*
D10*
X502500Y267000D03*
X502500Y268000D03*
D11*
X502000Y269000D03*
D10*
X501500Y270000D03*
X501500Y271000D03*
X500500Y272000D03*
X500500Y273000D03*
X500500Y274000D03*
X499500Y275000D03*
X499500Y276000D03*
X499500Y277000D03*
D11*
X499000Y278000D03*
D10*
X498500Y279000D03*
X498500Y280000D03*
D12*
X448000Y280000D03*
D10*
X498500Y281000D03*
D13*
X479500Y281000D03*
D14*
X448500Y281000D03*
D10*
X418500Y281000D03*
D14*
X404500Y281000D03*
D10*
X379500Y281000D03*
D11*
X351000Y281000D03*
D10*
X497500Y282000D03*
D15*
X478500Y282000D03*
D16*
X449000Y282000D03*
D14*
X419500Y282000D03*
D16*
X404000Y282000D03*
D10*
X379500Y282000D03*
D16*
X352000Y282000D03*
D10*
X497500Y283000D03*
D14*
X483500Y283000D03*
D17*
X473000Y283000D03*
D16*
X448000Y283000D03*
D10*
X420500Y283000D03*
D16*
X404000Y283000D03*
D11*
X379000Y283000D03*
D16*
X352000Y283000D03*
D10*
X497500Y284000D03*
D11*
X485000Y284000D03*
D13*
X469500Y284000D03*
D14*
X447500Y284000D03*
D10*
X421500Y284000D03*
D16*
X404000Y284000D03*
D10*
X378500Y284000D03*
D14*
X351500Y284000D03*
D10*
X496500Y285000D03*
X485500Y285000D03*
D13*
X466500Y285000D03*
D16*
X447000Y285000D03*
D10*
X421500Y285000D03*
D14*
X403500Y285000D03*
D10*
X378500Y285000D03*
D14*
X351500Y285000D03*
D10*
X496500Y286000D03*
X486500Y286000D03*
D16*
X464000Y286000D03*
D14*
X446500Y286000D03*
D10*
X421500Y286000D03*
D14*
X403500Y286000D03*
D10*
X377500Y286000D03*
D16*
X351000Y286000D03*
D10*
X496500Y287000D03*
X486500Y287000D03*
D16*
X462000Y287000D03*
D14*
X445500Y287000D03*
D10*
X421500Y287000D03*
D14*
X402500Y287000D03*
D10*
X377500Y287000D03*
D16*
X351000Y287000D03*
D10*
X496500Y288000D03*
X486500Y288000D03*
D16*
X459000Y288000D03*
D11*
X445000Y288000D03*
D12*
X422000Y288000D03*
D14*
X402500Y288000D03*
D10*
X377500Y288000D03*
D14*
X350500Y288000D03*
D11*
X496000Y289000D03*
D10*
X486500Y289000D03*
D11*
X458000Y289000D03*
D14*
X444500Y289000D03*
D12*
X422000Y289000D03*
D14*
X402500Y289000D03*
D10*
X376500Y289000D03*
D14*
X350500Y289000D03*
D10*
X495500Y290000D03*
X485500Y290000D03*
D11*
X444000Y290000D03*
D12*
X422000Y290000D03*
D14*
X402500Y290000D03*
D10*
X376500Y290000D03*
D11*
X350000Y290000D03*
D10*
X495500Y291000D03*
X485500Y291000D03*
D11*
X443000Y291000D03*
D12*
X422000Y291000D03*
D11*
X402000Y291000D03*
X376000Y291000D03*
D14*
X349500Y291000D03*
D10*
X495500Y292000D03*
X485500Y292000D03*
X442500Y292000D03*
X421500Y292000D03*
D14*
X401500Y292000D03*
D10*
X375500Y292000D03*
D14*
X349500Y292000D03*
D10*
X495500Y293000D03*
X485500Y293000D03*
D11*
X479000Y293000D03*
X442000Y293000D03*
D10*
X421500Y293000D03*
D11*
X401000Y293000D03*
D10*
X375500Y293000D03*
D11*
X349000Y293000D03*
D10*
X494500Y294000D03*
X484500Y294000D03*
D11*
X478000Y294000D03*
D10*
X451500Y294000D03*
D11*
X441000Y294000D03*
D10*
X421500Y294000D03*
D11*
X401000Y294000D03*
X375000Y294000D03*
X349000Y294000D03*
D10*
X494500Y295000D03*
X484500Y295000D03*
D11*
X477000Y295000D03*
D14*
X451500Y295000D03*
X440500Y295000D03*
D10*
X421500Y295000D03*
X400500Y295000D03*
X374500Y295000D03*
X348500Y295000D03*
X494500Y296000D03*
D11*
X484000Y296000D03*
X476000Y296000D03*
D14*
X453500Y296000D03*
X439500Y296000D03*
D10*
X421500Y296000D03*
D11*
X400000Y296000D03*
D10*
X374500Y296000D03*
D11*
X348000Y296000D03*
D10*
X494500Y297000D03*
X483500Y297000D03*
D11*
X475000Y297000D03*
X454000Y297000D03*
D14*
X439500Y297000D03*
D10*
X421500Y297000D03*
D11*
X400000Y297000D03*
D10*
X373500Y297000D03*
D11*
X348000Y297000D03*
D10*
X494500Y298000D03*
D11*
X483000Y298000D03*
X474000Y298000D03*
D10*
X454500Y298000D03*
D14*
X438500Y298000D03*
D10*
X421500Y298000D03*
D14*
X399500Y298000D03*
D10*
X373500Y298000D03*
D14*
X347500Y298000D03*
D10*
X493500Y299000D03*
D11*
X482000Y299000D03*
X473000Y299000D03*
D10*
X455500Y299000D03*
D16*
X438000Y299000D03*
D10*
X421500Y299000D03*
D14*
X399500Y299000D03*
D10*
X373500Y299000D03*
D14*
X347500Y299000D03*
D10*
X493500Y300000D03*
D11*
X481000Y300000D03*
X472000Y300000D03*
D10*
X455500Y300000D03*
X439500Y300000D03*
D11*
X436000Y300000D03*
D10*
X421500Y300000D03*
D16*
X399000Y300000D03*
D10*
X372500Y300000D03*
D16*
X347000Y300000D03*
D10*
X493500Y301000D03*
D11*
X480000Y301000D03*
X471000Y301000D03*
D10*
X454500Y301000D03*
D11*
X439000Y301000D03*
X435000Y301000D03*
D10*
X421500Y301000D03*
X400500Y301000D03*
D11*
X397000Y301000D03*
D10*
X372500Y301000D03*
D13*
X346500Y301000D03*
D10*
X493500Y302000D03*
D11*
X479000Y302000D03*
X470000Y302000D03*
D10*
X454500Y302000D03*
X438500Y302000D03*
D11*
X434000Y302000D03*
X421000Y302000D03*
D10*
X400500Y302000D03*
X396500Y302000D03*
X372500Y302000D03*
X348500Y302000D03*
X344500Y302000D03*
X493500Y303000D03*
D11*
X478000Y303000D03*
X469000Y303000D03*
X454000Y303000D03*
D10*
X438500Y303000D03*
D11*
X433000Y303000D03*
D10*
X420500Y303000D03*
X400500Y303000D03*
X395500Y303000D03*
X371500Y303000D03*
X348500Y303000D03*
D11*
X344000Y303000D03*
D10*
X493500Y304000D03*
D11*
X477000Y304000D03*
X468000Y304000D03*
X453000Y304000D03*
D10*
X438500Y304000D03*
D11*
X432000Y304000D03*
D10*
X420500Y304000D03*
X400500Y304000D03*
D11*
X395000Y304000D03*
D10*
X371500Y304000D03*
X348500Y304000D03*
D11*
X343000Y304000D03*
X493000Y305000D03*
D14*
X475500Y305000D03*
D10*
X467500Y305000D03*
D14*
X451500Y305000D03*
D10*
X438500Y305000D03*
D11*
X431000Y305000D03*
D10*
X420500Y305000D03*
X400500Y305000D03*
D11*
X394000Y305000D03*
X371000Y305000D03*
D10*
X348500Y305000D03*
D11*
X342000Y305000D03*
D10*
X492500Y306000D03*
D14*
X474500Y306000D03*
D10*
X466500Y306000D03*
D11*
X450000Y306000D03*
D10*
X438500Y306000D03*
D11*
X430000Y306000D03*
X421000Y306000D03*
D10*
X401500Y306000D03*
D11*
X393000Y306000D03*
D10*
X370500Y306000D03*
X348500Y306000D03*
D11*
X341000Y306000D03*
D10*
X492500Y307000D03*
D11*
X473000Y307000D03*
D10*
X466500Y307000D03*
D14*
X448500Y307000D03*
D10*
X438500Y307000D03*
D11*
X429000Y307000D03*
D10*
X421500Y307000D03*
X401500Y307000D03*
D14*
X391500Y307000D03*
D10*
X370500Y307000D03*
D11*
X349000Y307000D03*
X340000Y307000D03*
D10*
X492500Y308000D03*
D14*
X471500Y308000D03*
D10*
X466500Y308000D03*
D14*
X446500Y308000D03*
D11*
X439000Y308000D03*
X428000Y308000D03*
D10*
X421500Y308000D03*
X411500Y308000D03*
D11*
X402000Y308000D03*
D16*
X390000Y308000D03*
D11*
X370000Y308000D03*
D12*
X359000Y308000D03*
D10*
X349500Y308000D03*
D14*
X338500Y308000D03*
D10*
X492500Y309000D03*
D13*
X468500Y309000D03*
D18*
X442500Y309000D03*
X424500Y309000D03*
D14*
X410500Y309000D03*
D11*
X403000Y309000D03*
D19*
X385000Y309000D03*
D10*
X369500Y309000D03*
D11*
X359000Y309000D03*
D10*
X350500Y309000D03*
D16*
X336000Y309000D03*
D10*
X328500Y309000D03*
X492500Y310000D03*
D11*
X468000Y310000D03*
D16*
X442000Y310000D03*
X424000Y310000D03*
D20*
X407000Y310000D03*
X384000Y310000D03*
D10*
X369500Y310000D03*
D21*
X354500Y310000D03*
X332500Y310000D03*
D10*
X492500Y311000D03*
D12*
X424000Y311000D03*
D14*
X406500Y311000D03*
D13*
X354500Y311000D03*
D14*
X331500Y311000D03*
D10*
X492500Y312000D03*
X491500Y313000D03*
X491500Y314000D03*
X491500Y315000D03*
X491500Y316000D03*
X366500Y316000D03*
X491500Y317000D03*
D11*
X367000Y317000D03*
D10*
X491500Y318000D03*
X366500Y318000D03*
X491500Y319000D03*
X491500Y320000D03*
D12*
X491000Y321000D03*
X491000Y322000D03*
D10*
X490500Y323000D03*
X490500Y324000D03*
X490500Y325000D03*
X490500Y326000D03*
X490500Y327000D03*
X490500Y328000D03*
X490500Y329000D03*
X490500Y330000D03*
X490500Y331000D03*
X490500Y332000D03*
X490500Y333000D03*
D11*
X490000Y334000D03*
D10*
X489500Y335000D03*
X489500Y336000D03*
X489500Y337000D03*
X489500Y338000D03*
X489500Y339000D03*
X489500Y340000D03*
X489500Y341000D03*
D12*
X489000Y342000D03*
D10*
X488500Y343000D03*
X488500Y344000D03*
X462500Y344000D03*
X488500Y345000D03*
D11*
X462000Y345000D03*
D10*
X488500Y346000D03*
D11*
X461000Y346000D03*
D10*
X487500Y347000D03*
D11*
X460000Y347000D03*
D10*
X487500Y348000D03*
X459500Y348000D03*
D11*
X487000Y349000D03*
D10*
X458500Y349000D03*
X486500Y350000D03*
D11*
X458000Y350000D03*
D10*
X486500Y351000D03*
X457500Y351000D03*
X485500Y352000D03*
X457500Y352000D03*
D11*
X485000Y353000D03*
D10*
X457500Y353000D03*
D11*
X484000Y354000D03*
D10*
X457500Y354000D03*
D11*
X483000Y355000D03*
D10*
X457500Y355000D03*
D14*
X481500Y356000D03*
D11*
X459000Y356000D03*
D13*
X479500Y357000D03*
D16*
X460000Y357000D03*
D22*
X470000Y358000D03*
D23*
X469500Y359000D03*
M02*
